<svg width="123" height="130" viewBox="0 0 123 130" fill="none" xmlns="http://www.w3.org/2000/svg">
<path fill-rule="evenodd" clip-rule="evenodd" d="M61.5 0.373657C27.69 0.373657 0.25 29.3214 0.25 64.989C0.25 100.657 27.69 129.604 61.5 129.604C95.31 129.604 122.75 100.657 122.75 64.989C122.75 29.3214 95.31 0.373657 61.5 0.373657ZM12.5 64.989C12.5 61.0475 12.99 57.1706 13.7863 53.4875L43.0637 84.3737V90.8352C43.0637 97.9429 48.5762 103.758 55.3137 103.758V116.229C31.2425 112.998 12.5 91.2875 12.5 64.989ZM85.9387 90.8352C91.4512 90.8352 95.9837 94.6475 97.5762 99.8813C105.539 90.706 110.5 78.429 110.5 64.989C110.5 43.3429 97.76 24.7336 79.8137 17.109V19.7583C79.8137 26.866 74.3012 32.6813 67.5637 32.6813H55.3137V45.6044C55.3137 49.1583 52.5575 52.066 49.1887 52.066H36.9387V64.989H73.6887C77.0575 64.989 79.8137 67.8967 79.8137 71.4506V90.8352H85.9387Z" fill="#6797CE" fill-opacity="0.75"/>
</svg>
