<svg width="111" height="117" viewBox="0 0 111 117" fill="none" xmlns="http://www.w3.org/2000/svg">
<path fill-rule="evenodd" clip-rule="evenodd" d="M12.625 0.60437H98.375C105.113 0.60437 110.625 6.41975 110.625 13.5274V103.989C110.625 111.097 105.113 116.912 98.375 116.912H12.625C5.82625 116.912 0.375 111.097 0.375 103.989V13.5274C0.375 6.41975 5.82625 0.60437 12.625 0.60437ZM98.375 103.989V13.5275H12.625V103.989H98.375ZM55.5 58.7582C45.3937 58.7582 37.125 50.0352 37.125 39.3736C37.125 28.7121 45.3937 19.989 55.5 19.989C65.6062 19.989 73.875 28.7121 73.875 39.3736C73.875 50.0352 65.6062 58.7582 55.5 58.7582ZM49.375 39.3736C49.375 35.8198 52.1312 32.9121 55.5 32.9121C58.8688 32.9121 61.625 35.8198 61.625 39.3736C61.625 42.9275 58.8688 45.8352 55.5 45.8352C52.1312 45.8352 49.375 42.9275 49.375 39.3736ZM18.75 97.5275V87.6414C18.75 71.4875 43.0662 64.5091 55.5 64.5091C67.9337 64.5091 92.25 71.4875 92.25 87.6414V97.5275H18.75ZM55.5004 77.3675C63.5242 77.3675 73.8754 80.9859 78.1017 84.6044H32.8992C37.0642 80.9859 47.4767 77.3675 55.5004 77.3675Z" fill="#6797CE" fill-opacity="0.75"/>
</svg>
