<svg width="123" height="98" viewBox="0 0 123 98" fill="none" xmlns="http://www.w3.org/2000/svg">
<path d="M98.25 0.296753L73.75 26.1429H92.125V71.3737C92.125 78.4814 86.6125 84.2968 79.875 84.2968C73.1375 84.2968 67.625 78.4814 67.625 71.3737V26.1429C67.625 11.8629 56.6613 0.296753 43.125 0.296753C29.5887 0.296753 18.625 11.8629 18.625 26.1429V71.3737H0.25L24.75 97.2198L49.25 71.3737H30.875V26.1429C30.875 19.0352 36.3875 13.2198 43.125 13.2198C49.8625 13.2198 55.375 19.0352 55.375 26.1429V71.3737C55.375 85.6537 66.3388 97.2198 79.875 97.2198C93.4112 97.2198 104.375 85.6537 104.375 71.3737V26.1429H122.75L98.25 0.296753Z" fill="#6797CE" fill-opacity="0.75"/>
</svg>
