<svg width="135" height="143" viewBox="0 0 135 143" fill="none" xmlns="http://www.w3.org/2000/svg">
<path fill-rule="evenodd" clip-rule="evenodd" d="M77.1522 57.8444L132.767 116.515C135.217 119.1 135.217 123.171 132.767 125.626L118.68 140.487C116.291 143.007 112.432 143.007 110.043 140.487L54.2447 81.6229C40.0347 87.2444 23.436 84.0783 12.0435 72.0598C-2.04402 57.2629 -3.33027 34.066 8.06223 17.6536L31.521 42.4013L40.2185 33.2906L16.6985 8.41364C32.3172 -3.60482 54.2447 -2.24789 68.3322 12.6136C79.9085 24.8906 82.8485 42.7244 77.1522 57.8444ZM56.4492 65.7276L114.392 126.854L119.782 121.103L61.9005 60.0414C64.718 56.2291 66.5555 51.9645 67.2905 47.3768C68.8217 38.3953 66.3105 28.7676 59.6955 21.7891C53.8767 15.7153 46.2205 12.8722 38.6255 13.3245L57.5517 33.2906L31.5817 60.6876L12.6555 40.7214C12.2267 48.7337 14.9217 56.8753 20.7405 62.9491C27.1105 69.6691 35.8692 72.3183 44.1992 71.026C48.548 70.3799 52.713 68.6353 56.4492 65.7276Z" fill="#6796CE" fill-opacity="0.75"/>
</svg>
