<svg width="126" height="117" viewBox="0 0 126 117" fill="none" xmlns="http://www.w3.org/2000/svg">
<path fill-rule="evenodd" clip-rule="evenodd" d="M119.7 0.197754H6.3C2.8 0.197754 0 2.78237 0 6.01314V110.69C0 113.275 2.8 116.505 6.3 116.505H119.7C122.5 116.505 126 113.275 126 110.69V6.01314C126 2.78237 122.5 0.197754 119.7 0.197754ZM42 26.044H28V38.967H42V26.044ZM98 26.044H56V38.967H98V26.044ZM98 51.8901H56V64.8132H98V51.8901ZM56 77.7363H98V90.6593H56V77.7363ZM28 51.8901H42V64.8132H28V51.8901ZM42 77.7363H28V90.6593H42V77.7363ZM14 103.582H112V13.1209H14V103.582Z" fill="#6797CE" fill-opacity="0.75"/>
</svg>
