<svg width="123" height="85" viewBox="0 0 123 85" fill="none" xmlns="http://www.w3.org/2000/svg">
<path fill-rule="evenodd" clip-rule="evenodd" d="M103.823 54.1029L86.3057 73.9398H122.749V84.989H69.8907V75.3613L95.432 45.9613C97.637 43.5059 99.4132 41.2444 100.822 39.3059C102.292 37.3675 103.394 35.5582 104.252 33.9429C105.109 32.3275 105.661 30.8413 106.028 29.4198C106.334 27.9982 106.518 26.6413 106.518 25.2198C106.518 23.3459 106.212 21.6013 105.722 19.9859C105.171 18.3706 104.436 16.949 103.456 15.7859C102.476 14.6229 101.251 13.6536 99.8419 13.0075C98.4332 12.3613 96.7794 12.0382 94.8807 12.0382C92.6757 12.0382 90.6544 12.4259 89.0007 13.2013C87.3469 13.9767 85.9382 15.0106 84.8357 16.3675C83.7944 17.7244 82.937 19.3398 82.3857 21.2136C81.8957 22.9582 81.6507 24.8321 81.5894 26.8352H68.4819C68.5432 23.4106 69.0945 20.1798 70.1969 17.1429C71.3607 13.9121 73.0757 11.1336 75.3419 8.74286C77.547 6.35209 80.3644 4.41363 83.672 3.05671C86.9795 1.69978 90.7769 0.989014 95.0032 0.989014C98.9232 0.989014 102.414 1.50594 105.538 2.53978C108.539 3.63824 111.173 5.1244 113.256 7.12747C115.338 9.06594 116.931 11.4567 118.033 14.2998C119.136 17.1429 119.687 20.309 119.687 23.7336C119.687 26.2536 119.319 28.8382 118.523 31.3582C117.727 33.8782 116.624 36.3982 115.216 38.9182C113.807 41.4382 112.153 43.9582 110.193 46.4782C108.233 48.9982 106.151 51.5829 103.823 54.1029ZM24.75 13.9121H37V39.7582H61.5V52.6813H37V78.5275H24.75V52.6813H0.25V39.7582H24.75V13.9121Z" fill="#6797CE" fill-opacity="0.75"/>
</svg>
