<svg width="133" height="91" viewBox="0 0 133 91" fill="none" xmlns="http://www.w3.org/2000/svg">
<path d="M46.625 56.6593C31.1225 56.6593 0.25 64.2193 0.25 79.2747V90.5824H93V79.2747C93 64.2193 62.1275 56.6593 46.625 56.6593Z" fill="#6797CE" fill-opacity="0.75"/>
<path d="M15.7529 77.6593C21.3179 73.9116 34.7667 69.5824 46.6254 69.5824C58.4842 69.5824 71.9329 73.9116 77.4979 77.6593H15.7529Z" fill="#6797CE" fill-opacity="0.75"/>
<path d="M46.625 45.3516C59.4113 45.3516 69.8125 35.207 69.8125 22.7362C69.8125 10.2655 59.4113 0.12085 46.625 0.12085C33.8387 0.12085 23.4375 10.2655 23.4375 22.7362C23.4375 35.207 33.8387 45.3516 46.625 45.3516Z" fill="#6797CE" fill-opacity="0.75"/>
<path d="M46.625 13.0439C52.1237 13.0439 56.5625 17.3732 56.5625 22.7362C56.5625 28.0993 52.1237 32.4285 46.625 32.4285C41.1263 32.4285 36.6875 28.0993 36.6875 22.7362C36.6875 17.3732 41.1263 13.0439 46.625 13.0439Z" fill="#6797CE" fill-opacity="0.75"/>
<path d="M93.2651 57.0469C100.95 62.4746 106.25 69.7115 106.25 79.2746V90.5823H132.75V79.2746C132.75 66.2223 109.563 58.7915 93.2651 57.0469Z" fill="#6797CE" fill-opacity="0.75"/>
<path d="M86.375 45.3516C99.1612 45.3516 109.562 35.207 109.562 22.7362C109.562 10.2655 99.1612 0.12085 86.375 0.12085C82.7975 0.12085 79.485 0.96085 76.4375 2.38239C80.6113 8.13316 83.0625 15.1762 83.0625 22.7362C83.0625 30.2962 80.6113 37.3393 76.4375 43.0901C79.485 44.5116 82.7975 45.3516 86.375 45.3516Z" fill="#6797CE" fill-opacity="0.75"/>
</svg>
