<svg width="87" height="130" viewBox="0 0 87 130" fill="none" xmlns="http://www.w3.org/2000/svg">
<path fill-rule="evenodd" clip-rule="evenodd" d="M43.5 0.142822C36.7345 0.142822 31.25 5.92868 31.25 13.0659C31.25 20.2031 36.7345 25.989 43.5 25.989C50.2655 25.989 55.75 20.2031 55.75 13.0659C55.75 5.92868 50.2655 0.142822 43.5 0.142822ZM86.375 71.2197V58.2967C76.9425 58.4259 67.4488 53.4505 61.4463 46.472L53.545 37.232C52.5038 36.0043 51.2175 35.0351 49.8088 34.3243C49.7781 34.3243 49.7628 34.3082 49.7475 34.292C49.7322 34.2759 49.7169 34.2597 49.6863 34.2597H49.625C47.4813 32.9674 45.0313 32.3213 42.3363 32.5797C35.905 33.1613 31.25 39.1705 31.25 45.9551V84.1428C31.25 91.2505 36.7625 97.0659 43.5 97.0659H74.125V129.374H86.375V93.8351C86.375 86.7274 80.8625 80.912 74.125 80.912H55.75V58.6197C63.6513 65.5336 75.6563 71.1551 86.375 71.2197ZM12.875 97.066C12.875 107.792 21.0825 116.451 31.25 116.451C39.2738 116.451 46.0725 111.023 48.5838 103.528H61.2625C58.445 118.26 46.0725 129.374 31.25 129.374C14.345 129.374 0.625 114.9 0.625 97.066C0.625 81.4291 11.16 68.3768 25.125 65.4044V78.7798C18.02 81.4937 12.875 88.6014 12.875 97.066Z" fill="#6797CE" fill-opacity="0.75"/>
</svg>
