<svg width="142" height="91" viewBox="0 0 142 91" fill="none" xmlns="http://www.w3.org/2000/svg">
<path fill-rule="evenodd" clip-rule="evenodd" d="M127.667 0.12085H14.3334C6.54175 0.12085 0.237581 5.93623 0.237581 13.0439L0.166748 77.6593C0.166748 84.767 6.54175 90.5824 14.3334 90.5824H127.667C135.458 90.5824 141.833 84.767 141.833 77.6593V13.0439C141.833 5.93623 135.458 0.12085 127.667 0.12085ZM127.667 13.044V77.6593H14.3334V13.044H127.667ZM78.0834 19.5055H63.9167V32.4286H78.0834V19.5055ZM63.9167 38.8901H78.0834V51.8132H63.9167V38.8901ZM56.8334 19.5055H42.6667V32.4286H56.8334V19.5055ZM42.6667 38.8901H56.8334V51.8132H42.6667V38.8901ZM35.5834 38.8901H21.4167V51.8132H35.5834V38.8901ZM21.4167 19.5055H35.5834V32.4286H21.4167V19.5055ZM99.3334 58.2747H42.6667V71.1978H99.3334V58.2747ZM85.1667 38.8901H99.3334V51.8132H85.1667V38.8901ZM99.3334 19.5055H85.1667V32.4286H99.3334V19.5055ZM106.417 38.8901H120.583V51.8132H106.417V38.8901ZM120.583 19.5055H106.417V32.4286H120.583V19.5055Z" fill="#6797CE" fill-opacity="0.75"/>
</svg>
