<svg width="57" height="71" viewBox="0 0 57 71" fill="none" xmlns="http://www.w3.org/2000/svg">
<path d="M4.71497 1.08936L52.2848 68.4497Z" fill="#4f9cc8"/>
<path d="M4.71497 1.08936L52.2848 68.4497Z" fill="#4f9cc8"/>
<path d="M4.71497 1.09119V68.239H13.6533V13.8901L4.71497 1.09119Z" fill="#4f9cc8"/>
<path d="M4.71497 1.09119V68.239H13.6533V13.8901L4.71497 1.09119Z" fill="#4f9cc8"/>
<path d="M52.2847 68.3435V1.19563L43.0435 1.29057V55.3589L52.2847 68.3435Z" fill="#4f9cc8"/>
<path d="M52.2847 68.3435V1.19563L43.0435 1.29057V55.3589L52.2847 68.3435Z" fill="#4f9cc8"/>
<path d="M4.71497 1.09119L7.99441 -1.19905L0.714966 -11.6226V1.09119H4.71497ZM4.71497 68.239H0.714966V72.239H4.71497V68.239ZM13.6533 68.239V72.239H17.6533V68.239H13.6533ZM13.6533 13.8901H17.6533V12.6316L16.9327 11.5999L13.6533 13.8901ZM52.2847 68.3435L49.0258 70.6629L56.2847 80.8621V68.3435H52.2847ZM52.2847 1.19563H56.2847V-2.84568L52.2436 -2.80416L52.2847 1.19563ZM43.0435 1.29057L43.0024 -2.70921L39.0435 -2.66854V1.29057H43.0435ZM43.0435 55.3589H39.0435V56.637L39.7846 57.6783L43.0435 55.3589ZM1.44758 3.39678L49.0174 70.7571L55.5522 66.1423L7.98235 -1.21807L1.44758 3.39678ZM0.714966 1.09119V68.239H8.71497V1.09119H0.714966ZM4.71497 72.239H13.6533V64.239H4.71497V72.239ZM17.6533 68.239V13.8901H9.65325V68.239H17.6533ZM16.9327 11.5999L7.99441 -1.19905L1.43552 3.38144L10.3738 16.1803L16.9327 11.5999ZM56.2847 68.3435V1.19563H48.2847V68.3435H56.2847ZM52.2436 -2.80416L43.0024 -2.70921L43.0846 5.29036L52.3258 5.19542L52.2436 -2.80416ZM39.0435 1.29057V55.3589H47.0435V1.29057H39.0435ZM39.7846 57.6783L49.0258 70.6629L55.5436 66.0241L46.3024 53.0395L39.7846 57.6783Z" fill="#4f9cc8"/>
</svg>
