<?xml version="1.0" encoding="UTF-8"?>
<svg width="358px" height="387px" viewBox="0 0 358 387" version="1.1" xmlns="http://www.w3.org/2000/svg" xmlns:xlink="http://www.w3.org/1999/xlink">
    <!-- Generator: Sketch 63.1 (92452) - https://sketch.com -->
    <title>Big N w/ Disks</title>
    <desc>Created with Sketch.</desc>
    <defs>
        <path d="M0,0 L262,371" id="path-1"></path>
        <filter x="-1.5%" y="-1.1%" width="103.1%" height="102.2%" filterUnits="objectBoundingBox" id="filter-2">
            <feGaussianBlur stdDeviation="0" in="SourceGraphic"></feGaussianBlur>
        </filter>
        <filter x="-2.7%" y="-1.9%" width="105.3%" height="103.8%" filterUnits="objectBoundingBox" id="filter-3">
            <feMorphology radius="4" operator="dilate" in="SourceAlpha" result="shadowSpreadOuter1"></feMorphology>
            <feOffset dx="0" dy="2" in="shadowSpreadOuter1" result="shadowOffsetOuter1"></feOffset>
            <feGaussianBlur stdDeviation="2" in="shadowOffsetOuter1" result="shadowBlurOuter1"></feGaussianBlur>
            <feComposite in="shadowBlurOuter1" in2="SourceAlpha" operator="out" result="shadowBlurOuter1"></feComposite>
            <feColorMatrix values="0 0 0 0 0   0 0 0 0 0   0 0 0 0 0  0 0 0 0.5 0" type="matrix" in="shadowBlurOuter1"></feColorMatrix>
        </filter>
        <polygon id="path-4" points="0 0.0129654271 0 369.842618 49.2292994 369.842618 49.2292994 70.5054201"></polygon>
        <filter x="-22.3%" y="-4.8%" width="144.7%" height="108.3%" filterUnits="objectBoundingBox" id="filter-5">
            <feMorphology radius="4" operator="dilate" in="SourceAlpha" result="shadowSpreadOuter1"></feMorphology>
            <feOffset dx="0" dy="2" in="shadowSpreadOuter1" result="shadowOffsetOuter1"></feOffset>
            <feGaussianBlur stdDeviation="2" in="shadowOffsetOuter1" result="shadowBlurOuter1"></feGaussianBlur>
            <feComposite in="shadowBlurOuter1" in2="SourceAlpha" operator="out" result="shadowBlurOuter1"></feComposite>
            <feColorMatrix values="0 0 0 0 0   0 0 0 0 0   0 0 0 0 0  0 0 0 0.5 0" type="matrix" in="shadowBlurOuter1"></feColorMatrix>
        </filter>
        <polygon id="path-6" points="262 370.414826 262 0.585173502 211.101911 1.1081108 211.101911 298.900045"></polygon>
        <filter x="-21.6%" y="-2.4%" width="143.2%" height="108.3%" filterUnits="objectBoundingBox" id="filter-7">
            <feMorphology radius="4" operator="dilate" in="SourceAlpha" result="shadowSpreadOuter1"></feMorphology>
            <feOffset dx="0" dy="2" in="shadowSpreadOuter1" result="shadowOffsetOuter1"></feOffset>
            <feGaussianBlur stdDeviation="2" in="shadowOffsetOuter1" result="shadowBlurOuter1"></feGaussianBlur>
            <feComposite in="shadowBlurOuter1" in2="SourceAlpha" operator="out" result="shadowBlurOuter1"></feComposite>
            <feColorMatrix values="0 0 0 0 0   0 0 0 0 0   0 0 0 0 0  0 0 0 0.5 0" type="matrix" in="shadowBlurOuter1"></feColorMatrix>
        </filter>
    </defs>
    <g id="Page-1" stroke="none" stroke-width="1" fill="none" fill-rule="evenodd" stroke-linejoin="round">
        <g id="Big-N-w/-Disks" transform="translate(2.000000, 6.000000)">
            <g id="Big-N" transform="translate(44.000000, 0.000000)" fill-rule="evenodd" stroke-width="1">
                <g transform="translate(2.000000, 0.000000)">
                    <g id="Line-2" stroke-linecap="round" filter="url(#filter-2)">
                        <use fill="black" fill-opacity="1" filter="url(#filter-3)" xlink:href="#path-1"></use>
                        <use stroke="#000000" stroke-width="8" fill="#000000" fill-rule="evenodd" xlink:href="#path-1"></use>
                    </g>
                    <g id="Path-2" fill-rule="nonzero">
                        <use fill="black" fill-opacity="1" filter="url(#filter-5)" xlink:href="#path-4"></use>
                        <use stroke="#000000" stroke-width="8" fill="#000000" xlink:href="#path-4"></use>
                    </g>
                    <g id="Path-3">
                        <use fill="black" fill-opacity="1" filter="url(#filter-7)" xlink:href="#path-6"></use>
                        <use stroke="#000000" stroke-width="8" fill="#000000" fill-rule="evenodd" xlink:href="#path-6"></use>
                    </g>
                </g>
            </g>
            <g id="Disks" transform="translate(0.000000, 47.000000)" stroke="#000000" stroke-linecap="round" stroke-width="3">
                <g id="Disk2" transform="translate(0.000000, -0.461165)">
                    <path d="M40.4519543,114.24862 C-1.86737696,138.954862 -10.9820245,156.472983 13.1080117,166.802985 C49.243066,182.297988 178.325295,176.10327 271.857404,133.670885 C334.212143,105.382629 361.066603,60.8256673 352.420783,0" id="Path"></path>
                    <line x1="352.285714" y1="0" x2="313.285714" y2="17.6820388" id="Path-4"></line>
                </g>
                <g id="Disk2" transform="translate(0.000000, 38.077670)">
                    <path d="M40.4519543,114.24862 C-1.86737696,138.954862 -10.9820245,156.472983 13.1080117,166.802985 C49.243066,182.297988 178.325295,176.10327 271.857404,133.670885 C334.212143,105.382629 361.066603,60.8256673 352.420783,0" id="Path"></path>
                    <line x1="352.285714" y1="0" x2="313.285714" y2="17.6820388" id="Path-4"></line>
                </g>
                <g id="Disk2" transform="translate(0.000000, 76.616505)">
                    <path d="M40.4519543,114.24862 C-1.86737696,138.954862 -10.9820245,156.472983 13.1080117,166.802985 C49.243066,182.297988 178.325295,176.10327 271.857404,133.670885 C334.212143,105.382629 361.066603,60.8256673 352.420783,0" id="Path"></path>
                    <line x1="352.285714" y1="0" x2="313.285714" y2="17.6820388" id="Path-4"></line>
                </g>
                <g id="Disk2" transform="translate(0.000000, 115.155340)">
                    <path d="M40.4519543,114.24862 C-1.86737696,138.954862 -10.9820245,156.472983 13.1080117,166.802985 C49.243066,182.297988 178.325295,176.10327 271.857404,133.670885 C334.212143,105.382629 361.066603,60.8256673 352.420783,0" id="Path"></path>
                    <line x1="352.285714" y1="0" x2="313.285714" y2="17.6820388" id="Path-4"></line>
                </g>
                <g id="Disk2" transform="translate(0.000000, -39.000000)">
                    <path d="M40.4519543,114.24862 C-1.86737696,138.954862 -10.9820245,156.472983 13.1080117,166.802985 C49.243066,182.297988 178.325295,176.10327 271.857404,133.670885 C334.212143,105.382629 361.066603,60.8256673 352.420783,0" id="Path"></path>
                    <line x1="352.285714" y1="0" x2="313.285714" y2="17.6820388" id="Path-4"></line>
                </g>
            </g>
        </g>
    </g>
</svg>